<?xml version="1.0" encoding="UTF-8" standalone="no"?>
<svg
   xmlns:dc="http://purl.org/dc/elements/1.1/"
   xmlns:cc="http://creativecommons.org/ns#"
   xmlns:rdf="http://www.w3.org/1999/02/22-rdf-syntax-ns#"
   xmlns:svg="http://www.w3.org/2000/svg"
   xmlns="http://www.w3.org/2000/svg"
   xmlns:sodipodi="http://sodipodi.sourceforge.net/DTD/sodipodi-0.dtd"
   xmlns:inkscape="http://www.inkscape.org/namespaces/inkscape"
   version="1.1"
   data-browser="Chrome[49.0]"
   preserveAspectRatio="xMidYMid meet"
   viewBox="0 0 54.000438 49.486"
   id="svg2"
   inkscape:version="0.91 r13725"
   sodipodi:docname="logo-notext.svg"
   width="54.000439"
   height="49.486">
  <metadata
     id="metadata38">
    <rdf:RDF>
      <cc:Work
         rdf:about="">
        <dc:format>image/svg+xml</dc:format>
        <dc:type
           rdf:resource="http://purl.org/dc/dcmitype/StillImage" />
        <dc:title></dc:title>
      </cc:Work>
    </rdf:RDF>
  </metadata>
  <defs
     id="defs36" />
  <sodipodi:namedview
     pagecolor="#ffffff"
     bordercolor="#666666"
     borderopacity="1"
     objecttolerance="10"
     gridtolerance="10"
     guidetolerance="10"
     inkscape:pageopacity="0"
     inkscape:pageshadow="2"
     inkscape:window-width="1920"
     inkscape:window-height="1047"
     id="namedview34"
     showgrid="false"
     inkscape:zoom="8"
     inkscape:cx="55.816059"
     inkscape:cy="10.391741"
     inkscape:window-x="0"
     inkscape:window-y="33"
     inkscape:window-maximized="1"
     inkscape:current-layer="svg2"
     fit-margin-top="6"
     fit-margin-left="6"
     fit-margin-right="6"
     fit-margin-bottom="6" />
  <g
     id="logo__item--logo_0"
     class="logo__item"
     transform="matrix(0.35111276,0,0,0.35111276,-3.0864669,4.857737)">
    <g
       class="logo__item__inner"
       transform="matrix(0.87082727,0,0,0.87082727,22.626272,-6.5)"
       id="g10">
      <g
         id="g12">
        <g
           id="g14">
          <path
             d="m 30.3,85.1 c 36.8,0 83.6,29.5 91,44 0.6,1.2 0.9,2.2 1,3.1 l 1.6,-1.6 c 4.6,-5.5 4.8,-5.7 7.1,-9.2 3.3,-5.7 4.1,-7.1 6.7,-14 l 0.3,-1.1 C 137.2,90.3 83.6,63.2 43.7,63.2 28.9,63.2 17.9,66.9 10.9,74.1 5.7,79.4 3.3,86.7 3.8,95.2 c 0.5,8.6 4,17.3 9.8,25.1 C 8,111.6 5.9,102.9 8.3,96.3 10,91.4 15,85.5 28.4,85.1 c 0.6,0 1.3,0 1.9,0 z"
             id="path16"
             inkscape:connector-curvature="0"
             style="fill:#00b5c2" />
        </g>
        <g
           id="g18">
          <path
             d="m 68.4,14.5 c 8.4,0 16.8,1.4 24.9,4.1 15.6,5.2 29,15 37.9,27.5 -7.5,-14.8 -20.6,-26.3 -36.5,-31.6 -6.5,-2.2 -13.2,-3.3 -20,-3.3 -9.9,0 -19.5,2.3 -28.3,6.7 7,-2.3 14.4,-3.4 22,-3.4 z"
             id="path20"
             inkscape:connector-curvature="0"
             style="fill:#00b5c2" />
        </g>
        <g
           id="g22">
          <g
             id="g24">
            <path
               d="m 68.2,133.8 25.1,-0.1 -12.6,-21.2 -2.1,3.7 -0.7,-0.3 c -16.1,-6.4 -31.9,-9.4 -44.5,-8.6 -0.6,0 -1.2,0.1 -1.8,0.1 -9.2,0.9 -15,4.2 -16.5,9.4 -1.2,4.2 0.6,9.4 4.7,14.5 -1,-2.5 -1,-4.6 0,-6.4 1.5,-2.6 5.1,-4.1 10.3,-4.5 8.7,-0.6 21,2.1 33.7,7.2 1.7,0.7 3.5,1.5 5.4,2.4 l 0.8,0.4 -1.8,3.4 z"
               id="path26"
               inkscape:connector-curvature="0"
               style="fill:#69bf7b" />
          </g>
        </g>
        <g
           id="g28">
          <g
             id="g30">
            <path
               d="m 39.8,39 c 40,0 91.6,29 101.3,46.9 l 0,-0.7 c -0.1,-4.2 -0.2,-4.6 -1.2,-11.4 -0.2,-1.1 -0.5,-2.5 -0.8,-3.7 l -0.3,-1.4 c -1.2,-3.4 -3.9,-6.4 -6,-8.3 C 112.2,41.2 79.3,28.3 50.9,28.3 c -9.2,0 -17.5,1.3 -24.7,4 l -0.6,0.2 -3.4,-6.3 -11.1,18.5 21.6,0.7 -3.1,-5.7 1.1,-0.1 c 2.9,-0.4 6,-0.6 9.1,-0.6 z"
               id="path32"
               inkscape:connector-curvature="0"
               style="fill:#69bf7b" />
          </g>
        </g>
      </g>
    </g>
  </g>
</svg>
