<svg xmlns="http://www.w3.org/2000/svg" data-browser="Chrome[49.0]" viewBox="0 0 212 149"><g style="-inkscape-font-specification:Montserrat" font-weight="700" font-size="32" font-family="Montserrat" letter-spacing="0" fill="#00b5c2" class="logo__item logo__item__inner"><path d="M11.858 127.52q-1.248 0-1.984.609-.704.576-.704 1.568 0 .96.864 1.536.896.576 4.064 1.376 3.2.768 4.96 2.336 1.76 1.568 1.76 4.576 0 3.008-2.272 4.896-2.24 1.856-5.92 1.856-5.312 0-9.568-3.936l2.976-3.648q3.616 3.168 6.688 3.168 1.376 0 2.144-.576.8-.608.8-1.6 0-1.024-.832-1.6-.832-.608-3.296-1.216-3.904-.928-5.728-2.4-1.792-1.504-1.792-4.672 0-3.2 2.272-4.928 2.304-1.728 5.728-1.728 2.24 0 4.48.768t3.904 2.176l-2.528 3.648q-2.912-2.208-6.016-2.208zM34.888 146.017h-9.792v-22.368H33.8q2.272 0 3.904.544 1.664.544 2.496 1.472 1.504 1.728 1.504 3.904 0 2.624-1.696 3.904-.576.448-.8.576-.224.096-.8.352 2.08.448 3.296 1.888 1.248 1.408 1.248 3.52 0 2.336-1.6 4.128-1.856 2.08-6.464 2.08zm-4.8-13.312h2.368q2.08 0 3.072-.448 1.024-.448 1.024-1.92 0-1.504-.928-1.984t-3.136-.48h-2.4v4.832zm0 9.088h3.424q2.144 0 3.2-.512 1.088-.544 1.088-2.08 0-1.568-1.152-2.048-1.12-.512-3.616-.512h-2.944v5.152zM62.572 136.513l3.968-12.864h5.216l3.936 12.864 4.448-12.864h5.408l-7.808 22.368h-3.712l-4.896-15.552-4.864 15.552h-3.712l-7.808-22.368h5.408l4.416 12.864zM102.653 143.52q-2.912 2.753-6.848 2.753-3.904 0-6.464-2.4-2.56-2.432-2.56-6.496t2.592-6.464q2.624-2.4 6.176-2.4t6.016 2.144q2.496 2.144 2.496 5.888v2.56H91.517q.224 1.408 1.472 2.304 1.248.896 2.816.896 2.528 0 4.16-1.696l2.688 2.912zm-3.456-7.84q-.16-1.535-1.152-2.367-.992-.832-2.432-.832-1.408 0-2.592.864-1.184.864-1.376 2.336h7.552zM117.41 128.513q3.137 0 5.473 2.464 2.336 2.432 2.336 6.272 0 3.84-2.4 6.432-2.4 2.592-5.472 2.592-3.04 0-5.056-2.528v2.272h-4.8v-23.744h4.8v8.448q1.984-2.208 5.12-2.208zm-5.183 8.928q0 2.08 1.152 3.424 1.184 1.312 2.848 1.312t2.912-1.312q1.248-1.344 1.248-3.424t-1.216-3.488q-1.216-1.408-2.912-1.408t-2.88 1.408q-1.152 1.376-1.152 3.488zM141.576 140.673q0 2.528-1.888 4.064-1.856 1.536-4.736 1.536-1.92 0-4-.672-2.08-.704-3.744-2.048l2.112-3.008q2.688 2.08 5.728 2.08.928 0 1.472-.352.544-.384.544-.992t-.768-1.12q-.736-.512-2.176-.96-1.408-.448-2.176-.768-.736-.32-1.696-.928-1.952-1.216-1.952-3.584 0-2.4 1.92-3.904t4.96-1.504q3.04 0 6.08 2.048l-1.792 3.2q-2.24-1.536-4.48-1.536-2.208 0-2.208 1.216 0 .672.704 1.056t2.336.896q1.632.512 2.304.8.704.256 1.664.832 1.792 1.088 1.792 3.648zM150.844 132.257v7.712q0 .992.512 1.568.512.544 1.216.544 1.344 0 2.272-1.216l1.792 3.36q-2.24 2.048-4.736 2.048-2.464 0-4.192-1.632-1.696-1.632-1.696-4.448v-7.936h-2.016V128.8h2.016v-5.152h4.832v5.152h4.16v3.456h-4.16zM162.83 137.409q0 2.112 1.185 3.456 1.216 1.312 3.072 1.312 1.888 0 3.072-1.312 1.216-1.344 1.216-3.456t-1.216-3.456q-1.184-1.344-3.072-1.344-1.856 0-3.072 1.344-1.184 1.344-1.184 3.456zm13.377 0q0 3.744-2.592 6.304t-6.528 2.56q-3.904 0-6.496-2.56-2.592-2.56-2.592-6.304t2.592-6.304q2.592-2.592 6.496-2.592 3.936 0 6.528 2.592 2.592 2.56 2.592 6.304zM188.797 133.025q-2.144 0-3.2 1.536-1.056 1.504-1.056 4v7.456h-4.8V128.8h4.8v2.272q.928-1.056 2.304-1.792 1.408-.736 2.848-.768l.032 4.512h-.928zM207.778 143.52q-2.912 2.753-6.848 2.753-3.904 0-6.464-2.4-2.56-2.432-2.56-6.496t2.592-6.464q2.624-2.4 6.176-2.4t6.016 2.144q2.496 2.144 2.496 5.888v2.56h-12.544q.224 1.408 1.472 2.304 1.248.896 2.816.896 2.528 0 4.16-1.696l2.688 2.912zm-3.456-7.84q-.16-1.535-1.152-2.367-.992-.832-2.432-.832-1.408 0-2.592.864-1.184.864-1.376 2.336h7.552z"/></g><g class="logo__item logo__item__inner"><path fill="#00B5C2" d="M49.012 67.607c32.047 0 72.801 25.69 79.246 38.317.522 1.045.783 1.916.87 2.7l1.394-1.394c4.006-4.79 4.18-4.964 6.183-8.012 2.873-4.963 3.57-6.182 5.834-12.191l.261-.958c-.696-13.933-47.373-37.533-82.119-37.533-12.888 0-22.467 3.222-28.563 9.492-4.528 4.616-6.618 10.973-6.183 18.375.436 7.489 3.484 15.065 8.535 21.858-4.877-7.577-6.706-15.153-4.616-20.9 1.48-4.267 5.835-9.405 17.504-9.754h1.654zM82.19 6.127c7.316 0 14.63 1.22 21.684 3.57 13.585 4.529 25.254 13.063 33.005 23.948-6.531-12.888-17.94-22.903-31.785-27.518a54.1 54.1 0 0 0-17.417-2.874c-8.621 0-16.981 2.003-24.644 5.835 6.095-2.003 12.54-2.961 19.158-2.961z"/><path fill="#69BF7B" d="M82.017 110.017l21.857-.087-10.972-18.462-1.829 3.222-.61-.261c-14.02-5.573-27.779-8.186-38.751-7.49-.523 0-1.045.088-1.568.088-8.011.784-13.062 3.657-14.368 8.186-1.045 3.657.522 8.185 4.093 12.627-.871-2.177-.871-4.006 0-5.574 1.306-2.264 4.44-3.57 8.97-3.918 7.575-.523 18.287 1.828 29.346 6.27 1.48.61 3.048 1.306 4.703 2.09l.696.348-1.567 2.96zM57.285 27.462c34.833 0 79.768 25.254 88.215 40.842v-.61c-.087-3.657-.174-4.005-1.045-9.927a54.28 54.28 0 0 0-.697-3.222l-.26-1.22c-1.046-2.96-3.397-5.572-5.226-7.227-17.939-16.72-46.59-27.954-71.32-27.954-8.012 0-15.24 1.132-21.51 3.484l-.523.174-2.96-5.486-9.667 16.11 18.81.61-2.7-4.964.959-.087a58.612 58.612 0 0 1 7.924-.523z"/></g></svg>